<svg width="461" height="389" viewBox="0 0 461 389" fill="none" xmlns="http://www.w3.org/2000/svg">
<mask id="mask0_4322_59569" style="mask-type:alpha" maskUnits="userSpaceOnUse" x="0" y="0" width="461" height="389">
<rect width="461" height="389" fill="#D9D9D9"/>
</mask>
<g mask="url(#mask0_4322_59569)">
<path opacity="0.4" fill-rule="evenodd" clip-rule="evenodd" d="M403.499 35.6472C399.919 35.6472 398.034 33.8498 396.518 32.4036C395.103 31.0553 393.986 29.9887 391.632 29.9887C389.279 29.9887 388.161 31.0553 386.748 32.4036C385.231 33.8498 383.346 35.6472 379.765 35.6472C376.191 35.6472 374.308 33.8498 372.795 32.4036C371.382 31.0553 370.265 29.9887 367.918 29.9887C365.572 29.9887 364.457 31.0541 363.044 32.4036C361.532 33.8474 359.649 35.6472 356.074 35.6472C352.498 35.6472 350.618 33.8474 349.105 32.4036C347.693 31.0541 346.578 29.9887 344.232 29.9887C343.414 29.9887 342.75 29.3557 342.75 28.5755C342.75 27.7941 343.414 27.1611 344.232 27.1611C347.808 27.1611 349.688 28.9597 351.201 30.4035C352.613 31.753 353.728 32.8185 356.074 32.8185C358.421 32.8185 359.538 31.7519 360.949 30.4035C362.461 28.9574 364.343 27.1611 367.918 27.1611C371.495 27.1611 373.378 28.9597 374.89 30.4035C376.303 31.753 377.418 32.8185 379.765 32.8185C382.12 32.8185 383.239 31.7519 384.652 30.4023C386.169 28.9573 388.054 27.1611 391.632 27.1611C395.212 27.1611 397.096 28.9573 398.612 30.4023C400.026 31.7519 401.146 32.8185 403.499 32.8185C404.318 32.8185 404.981 33.4514 404.981 34.2328C404.981 35.0131 404.318 35.6472 403.499 35.6472Z" fill="#0044C7"/>
<path opacity="0.4" fill-rule="evenodd" clip-rule="evenodd" d="M403.499 51.2029C399.919 51.2029 398.034 49.4055 396.518 47.9593C395.103 46.6109 393.986 45.5455 391.632 45.5455C389.279 45.5455 388.161 46.6109 386.748 47.9593C385.231 49.4055 383.346 51.2029 379.765 51.2029C376.191 51.2029 374.308 49.4055 372.795 47.9593C371.382 46.6109 370.265 45.5455 367.918 45.5455C365.572 45.5455 364.457 46.6098 363.044 47.9593C361.532 49.4043 359.649 51.2029 356.074 51.2029C352.498 51.2029 350.618 49.4043 349.105 47.9593C347.693 46.6098 346.578 45.5455 344.232 45.5455C343.414 45.5455 342.75 44.9114 342.75 44.1312C342.75 43.3497 343.414 42.7168 344.232 42.7168C347.808 42.7168 349.688 44.5154 351.201 45.9604C352.613 47.3087 353.728 48.3742 356.074 48.3742C358.421 48.3742 359.538 47.3075 360.949 45.9604C362.461 44.5142 364.343 42.7168 367.918 42.7168C371.495 42.7168 373.378 44.5154 374.89 45.9604C376.303 47.3087 377.418 48.3742 379.765 48.3742C382.12 48.3742 383.239 47.3075 384.652 45.958C386.169 44.5142 388.054 42.7168 391.632 42.7168C395.212 42.7168 397.096 44.5142 398.612 45.958C400.026 47.3075 401.146 48.3742 403.499 48.3742C404.318 48.3742 404.981 49.0083 404.981 49.7885C404.981 50.5688 404.318 51.2029 403.499 51.2029Z" fill="#0044C7"/>
<path opacity="0.4" fill-rule="evenodd" clip-rule="evenodd" d="M403.499 66.7673C399.919 66.7673 398.034 64.9699 396.518 63.5238C395.103 62.1754 393.986 61.1099 391.632 61.1099C389.279 61.1099 388.161 62.1754 386.748 63.5238C385.231 64.9699 383.346 66.7673 379.765 66.7673C376.191 66.7673 374.308 64.9699 372.795 63.5238C371.382 62.1754 370.265 61.1099 367.918 61.1099C365.572 61.1099 364.457 62.1754 363.044 63.5238C361.532 64.9688 359.649 66.7673 356.074 66.7673C352.498 66.7673 350.618 64.9688 349.105 63.5238C347.693 62.1754 346.578 61.1099 344.232 61.1099C343.414 61.1099 342.75 60.4758 342.75 59.6956C342.75 58.9153 343.414 58.2812 344.232 58.2812C347.808 58.2812 349.688 60.0798 351.201 61.5248C352.613 62.8743 353.728 63.9386 356.074 63.9386C358.421 63.9386 359.538 62.872 360.949 61.5248C362.461 60.0786 364.343 58.2812 367.918 58.2812C371.495 58.2812 373.378 60.0798 374.89 61.5248C376.303 62.8743 377.418 63.9386 379.765 63.9386C382.12 63.9386 383.239 62.872 384.652 61.5225C386.169 60.0787 388.054 58.2812 391.632 58.2812C395.212 58.2812 397.096 60.0787 398.612 61.5225C400.026 62.872 401.146 63.9386 403.499 63.9386C404.318 63.9386 404.981 64.5727 404.981 65.353C404.981 66.1344 404.318 66.7673 403.499 66.7673Z" fill="#0044C7"/>
<path opacity="0.4" fill-rule="evenodd" clip-rule="evenodd" d="M403.499 83.7373C399.919 83.7373 398.034 81.6418 396.518 79.9546C395.103 78.3801 393.986 77.1371 391.632 77.1371C389.279 77.1371 388.161 78.3801 386.748 79.9546C385.231 81.6418 383.346 83.7373 379.765 83.7373C376.191 83.7373 374.308 81.6418 372.795 79.9546C371.382 78.3801 370.265 77.1371 367.918 77.1371C365.572 77.1371 364.457 78.3801 363.044 79.9546C361.532 81.639 359.649 83.7373 356.074 83.7373C352.498 83.7373 350.618 81.639 349.105 79.9546C347.693 78.3801 346.578 77.1371 344.232 77.1371C343.414 77.1371 342.75 76.3986 342.75 75.487C342.75 74.5767 343.414 73.8369 344.232 73.8369C347.808 73.8369 349.688 75.9366 351.201 77.6211C352.613 79.1955 353.728 80.4386 356.074 80.4386C358.421 80.4386 359.538 79.1928 360.949 77.6211C362.461 75.9339 364.343 73.8369 367.918 73.8369C371.495 73.8369 373.378 75.9366 374.89 77.6211C376.303 79.1955 377.418 80.4386 379.765 80.4386C382.12 80.4386 383.239 79.1928 384.652 77.6183C386.169 75.9339 388.054 73.8369 391.632 73.8369C395.212 73.8369 397.096 75.9339 398.612 77.6183C400.026 79.1928 401.146 80.4386 403.499 80.4386C404.318 80.4386 404.981 81.177 404.981 82.0873C404.981 82.9989 404.318 83.7373 403.499 83.7373Z" fill="#0044C7"/>
<path opacity="0.4" fill-rule="evenodd" clip-rule="evenodd" d="M363.447 269.004C363.447 270.721 362.056 272.112 360.339 272.112C358.622 272.112 357.23 270.721 357.23 269.004C357.23 267.287 358.622 265.896 360.339 265.896C362.056 265.896 363.447 267.287 363.447 269.004Z" fill="#0044C7"/>
<path opacity="0.4" fill-rule="evenodd" clip-rule="evenodd" d="M384.172 269.004C384.172 270.721 382.78 272.112 381.064 272.112C379.347 272.112 377.955 270.721 377.955 269.004C377.955 267.287 379.347 265.896 381.064 265.896C382.78 265.896 384.172 267.287 384.172 269.004Z" fill="#0044C7"/>
<path opacity="0.4" fill-rule="evenodd" clip-rule="evenodd" d="M404.893 269.004C404.893 270.721 403.501 272.112 401.784 272.112C400.067 272.112 398.676 270.721 398.676 269.004C398.676 267.287 400.067 265.896 401.784 265.896C403.501 265.896 404.893 267.287 404.893 269.004Z" fill="#0044C7"/>
<path opacity="0.4" fill-rule="evenodd" clip-rule="evenodd" d="M424.581 269.008C424.581 270.153 423.653 271.08 422.509 271.08C421.365 271.08 420.437 270.153 420.437 269.008C420.437 267.864 421.365 266.936 422.509 266.936C423.653 266.936 424.581 267.864 424.581 269.008Z" fill="#0044C7"/>
<path opacity="0.4" fill-rule="evenodd" clip-rule="evenodd" d="M363.447 289.721C363.447 291.438 362.056 292.829 360.339 292.829C358.622 292.829 357.23 291.438 357.23 289.721C357.23 288.004 358.622 286.612 360.339 286.612C362.056 286.612 363.447 288.004 363.447 289.721Z" fill="#0044C7"/>
<path opacity="0.4" fill-rule="evenodd" clip-rule="evenodd" d="M384.172 289.721C384.172 291.438 382.78 292.829 381.064 292.829C379.347 292.829 377.955 291.438 377.955 289.721C377.955 288.004 379.347 286.612 381.064 286.612C382.78 286.612 384.172 288.004 384.172 289.721Z" fill="#0044C7"/>
<path opacity="0.4" fill-rule="evenodd" clip-rule="evenodd" d="M404.893 289.721C404.893 291.438 403.501 292.829 401.784 292.829C400.067 292.829 398.676 291.438 398.676 289.721C398.676 288.004 400.067 286.612 401.784 286.612C403.501 286.612 404.893 288.004 404.893 289.721Z" fill="#0044C7"/>
<path opacity="0.4" fill-rule="evenodd" clip-rule="evenodd" d="M424.581 289.732C424.581 290.877 423.653 291.805 422.509 291.805C421.365 291.805 420.437 290.877 420.437 289.732C420.437 288.588 421.365 287.66 422.509 287.66C423.653 287.66 424.581 288.588 424.581 289.732Z" fill="#0044C7"/>
<path opacity="0.4" fill-rule="evenodd" clip-rule="evenodd" d="M363.447 310.453C363.447 312.17 362.056 313.562 360.339 313.562C358.622 313.562 357.23 312.17 357.23 310.453C357.23 308.736 358.622 307.345 360.339 307.345C362.056 307.345 363.447 308.736 363.447 310.453Z" fill="#0044C7"/>
<path opacity="0.4" fill-rule="evenodd" clip-rule="evenodd" d="M384.172 310.453C384.172 312.17 382.78 313.562 381.064 313.562C379.347 313.562 377.955 312.17 377.955 310.453C377.955 308.736 379.347 307.345 381.064 307.345C382.78 307.345 384.172 308.736 384.172 310.453Z" fill="#0044C7"/>
<path opacity="0.4" fill-rule="evenodd" clip-rule="evenodd" d="M403.86 310.449C403.86 311.594 402.932 312.522 401.788 312.522C400.644 312.522 399.716 311.594 399.716 310.449C399.716 309.305 400.644 308.377 401.788 308.377C402.932 308.377 403.86 309.305 403.86 310.449Z" fill="#0044C7"/>
<path opacity="0.4" fill-rule="evenodd" clip-rule="evenodd" d="M424.581 310.449C424.581 311.594 423.653 312.522 422.509 312.522C421.365 312.522 420.437 311.594 420.437 310.449C420.437 309.305 421.365 308.377 422.509 308.377C423.653 308.377 424.581 309.305 424.581 310.449Z" fill="#0044C7"/>
<path opacity="0.4" fill-rule="evenodd" clip-rule="evenodd" d="M362.411 331.174C362.411 332.318 361.483 333.246 360.339 333.246C359.195 333.246 358.267 332.318 358.267 331.174C358.267 330.029 359.195 329.102 360.339 329.102C361.483 329.102 362.411 330.029 362.411 331.174Z" fill="#0044C7"/>
<path opacity="0.4" fill-rule="evenodd" clip-rule="evenodd" d="M383.136 331.174C383.136 332.318 382.208 333.246 381.064 333.246C379.919 333.246 378.991 332.318 378.991 331.174C378.991 330.029 379.919 329.102 381.064 329.102C382.208 329.102 383.136 330.029 383.136 331.174Z" fill="#0044C7"/>
<path opacity="0.4" fill-rule="evenodd" clip-rule="evenodd" d="M403.86 331.174C403.86 332.318 402.932 333.246 401.788 333.246C400.644 333.246 399.716 332.318 399.716 331.174C399.716 330.029 400.644 329.102 401.788 329.102C402.932 329.102 403.86 330.029 403.86 331.174Z" fill="#0044C7"/>
<path opacity="0.4" fill-rule="evenodd" clip-rule="evenodd" d="M424.581 331.174C424.581 332.318 423.653 333.246 422.509 333.246C421.365 333.246 420.437 332.318 420.437 331.174C420.437 330.029 421.365 329.102 422.509 329.102C423.653 329.102 424.581 330.029 424.581 331.174Z" fill="#0044C7"/>
<path opacity="0.4" fill-rule="evenodd" clip-rule="evenodd" d="M450.769 196.167H433.461C433.461 178.671 419.225 164.435 401.729 164.435V147.127C428.77 147.127 450.769 169.126 450.769 196.167Z" fill="#0044C7"/>
<path opacity="0.4" fill-rule="evenodd" clip-rule="evenodd" d="M144.848 96.3664C146.972 97.9277 150.02 97.5238 153.551 97.0547C159.036 96.3297 165.604 95.4649 172.041 101.144V98.4946C172.041 92.1864 166.927 87.0732 160.619 87.0732H144.007C142.686 90.2478 141.91 94.2045 144.848 96.3664Z" fill="#0044C7"/>
<path opacity="0.4" fill-rule="evenodd" clip-rule="evenodd" d="M153.698 98.1877C149.923 98.6884 146.657 99.1187 144.169 97.2872C140.758 94.7766 141.402 90.5221 142.756 87.0732H137.774C131.466 87.0732 126.353 92.1864 126.353 98.4947V111.737C131.901 109.802 144.571 106.801 156.891 113.872C163.999 117.951 167.004 124.47 168.271 129.761C170.569 127.672 172.038 124.687 172.038 121.337V102.742C165.692 96.6295 159.132 97.4688 153.698 98.1877Z" fill="#0044C7"/>
<path opacity="0.4" fill-rule="evenodd" clip-rule="evenodd" d="M142.518 118.828C137.155 115.663 131.205 116.169 126.353 117.606V121.329C126.353 127.637 131.467 132.75 137.775 132.75H149.872C149.741 127.856 148.183 122.169 142.518 118.828Z" fill="#0044C7"/>
<path opacity="0.4" fill-rule="evenodd" clip-rule="evenodd" d="M156.325 114.87C144.06 107.829 131.465 111.102 126.353 112.958V116.45C131.388 115.018 137.525 114.576 143.098 117.859C149.216 121.467 150.877 127.564 151.01 132.766H160.617C163.118 132.766 165.413 131.939 167.294 130.575C166.16 125.428 163.332 118.892 156.325 114.87Z" fill="#0044C7"/>
<path opacity="0.4" fill-rule="evenodd" clip-rule="evenodd" d="M28.7359 328.934L14.3826 343.288L0.0292969 328.934L14.3826 314.581L28.7359 328.934Z" fill="#0044C7"/>
<path fill-rule="evenodd" clip-rule="evenodd" d="M290.716 698.032H272.807L263.853 363.736H299.669L290.716 698.032Z" fill="#5D21D1"/>
<path fill-rule="evenodd" clip-rule="evenodd" d="M278.784 698.784C278.375 698.784 278.042 698.457 278.035 698.048L272.065 363.752C272.057 363.338 272.387 362.997 272.8 362.989C273.156 362.926 273.556 363.311 273.562 363.725L279.533 698.022C279.54 698.436 279.211 698.776 278.797 698.784H278.784Z" fill="#160151"/>
<path fill-rule="evenodd" clip-rule="evenodd" d="M204.158 698.032H186.25L222.067 363.736H257.884L204.158 698.032Z" fill="#5D21D1"/>
<path fill-rule="evenodd" clip-rule="evenodd" d="M193.71 698.786C193.678 698.786 193.646 698.786 193.612 698.78C193.202 698.726 192.912 698.351 192.965 697.94L236.245 363.644C236.299 363.234 236.659 362.939 237.085 362.998C237.494 363.052 237.784 363.426 237.731 363.837L194.451 698.133C194.401 698.51 194.08 698.786 193.71 698.786Z" fill="#160151"/>
<path fill-rule="evenodd" clip-rule="evenodd" d="M359.368 698.032H377.276L341.459 363.736H305.642L359.368 698.032Z" fill="#5D21D1"/>
<path fill-rule="evenodd" clip-rule="evenodd" d="M369.813 698.786C369.442 698.786 369.121 698.511 369.071 698.133L325.791 363.838C325.739 363.427 326.028 363.052 326.437 362.998C326.859 362.938 327.224 363.235 327.277 363.645L370.557 697.941C370.61 698.352 370.32 698.726 369.91 698.78C369.876 698.786 369.845 698.786 369.813 698.786Z" fill="#160151"/>
<path fill-rule="evenodd" clip-rule="evenodd" d="M213.766 441.196L247.232 430.01L257.883 363.736H222.065L213.766 441.196Z" fill="#160151"/>
<path fill-rule="evenodd" clip-rule="evenodd" d="M265.465 423.916L298.352 412.924L299.67 363.736H263.853L265.465 423.916Z" fill="#160151"/>
<path fill-rule="evenodd" clip-rule="evenodd" d="M341.459 363.736H305.642L312.773 408.105L345.057 397.314L341.459 363.736Z" fill="#160151"/>
<path fill-rule="evenodd" clip-rule="evenodd" d="M347.433 378.673H216.102C212.806 378.673 210.133 376.001 210.133 372.703V366.733C210.133 358.491 216.814 351.81 225.057 351.81H338.479C346.72 351.81 353.402 358.491 353.402 366.733V372.703C353.402 376.001 350.729 378.673 347.433 378.673Z" fill="#5D21D1"/>
<path fill-rule="evenodd" clip-rule="evenodd" d="M353.397 370.46H210.128C209.713 370.46 209.379 370.126 209.379 369.711C209.379 369.297 209.713 368.962 210.128 368.962H353.397C353.811 368.962 354.146 369.297 354.146 369.711C354.146 370.126 353.811 370.46 353.397 370.46Z" fill="#160151"/>
<path fill-rule="evenodd" clip-rule="evenodd" d="M258.704 110.113C258.632 110.113 258.558 110.103 258.487 110.081C258.353 110.04 245.079 105.882 245.082 92.9462C245.085 82.1201 255.114 72.2292 255.541 71.8126C255.836 71.5261 256.311 71.5318 256.6 71.8267C256.888 72.1225 256.883 72.5981 256.585 72.8855C256.486 72.9838 246.583 82.7576 246.58 92.9462C246.577 104.758 258.417 108.494 258.922 108.648C259.317 108.768 259.541 109.186 259.421 109.581C259.322 109.905 259.026 110.113 258.704 110.113Z" fill="#160151"/>
<path fill-rule="evenodd" clip-rule="evenodd" d="M289.84 106.864C289.84 106.864 324.741 108.406 334.69 99.2036C344.639 89.9999 346.753 73.0867 329.591 58.0384C316.051 46.1656 311.938 36.888 300.729 26.2004C289.656 15.643 274.457 12.533 261.75 16.8863C246.282 22.1851 246.39 33.1647 246.39 33.1647C246.39 33.1647 237.312 30.8926 234.701 44.3578C231.603 60.3283 250.619 66.774 250.619 66.774L289.84 106.864Z" fill="#160151"/>
<path fill-rule="evenodd" clip-rule="evenodd" d="M257.769 66.7764C257.769 66.7764 244.568 82.4164 249.188 96.4077C253.023 108.019 266.581 107.062 278.211 106.964L257.769 66.7764Z" fill="#160151"/>
<path fill-rule="evenodd" clip-rule="evenodd" d="M210.574 183.53L179.955 251.657L123.454 264.119V299.489H233.893V183.53H210.574Z" fill="#FFC4A3"/>
<path fill-rule="evenodd" clip-rule="evenodd" d="M201.29 204.175C201.29 204.175 206.049 220.3 233.887 225.429V183.53H210.57L201.29 204.175Z" fill="#EB7353"/>
<path fill-rule="evenodd" clip-rule="evenodd" d="M244.028 123.339C233.706 125.702 230.161 134.656 220.088 150.513C210.013 166.369 199.381 180.734 188.561 190.621C188.561 190.621 195.152 202.933 211.568 210.022C228.604 217.378 241.416 214.126 241.416 214.126L244.028 123.339Z" fill="#5D21D1"/>
<path fill-rule="evenodd" clip-rule="evenodd" d="M105.547 280.512C120.473 273.453 211.825 290.269 211.825 290.269L245.274 290.119V352.923H105.547V280.512Z" fill="#160151"/>
<path fill-rule="evenodd" clip-rule="evenodd" d="M231.843 236.882L211.826 290.261L230.91 296.391C230.91 296.391 169.162 333.763 135.335 361.124C101.673 388.35 103.497 398.433 107.974 444.2C111.846 483.772 127.375 579.386 127.375 579.386L229.604 552.15L197.517 423.804C197.517 423.804 274.739 387.296 309.82 364.482C343.67 342.469 345.638 333.141 342.279 300.309C339.177 269.969 331.086 236.882 331.086 236.882H231.843Z" fill="#160151"/>
<path fill-rule="evenodd" clip-rule="evenodd" d="M135.331 361.879C135.113 361.879 134.897 361.783 134.749 361.601C134.489 361.279 134.538 360.808 134.86 360.547C168.339 333.466 229.899 296.13 230.518 295.756C230.87 295.544 231.331 295.655 231.546 296.009C231.76 296.363 231.647 296.824 231.293 297.037C230.677 297.41 169.203 334.696 135.802 361.711C135.663 361.824 135.496 361.879 135.331 361.879Z" fill="#DADEE8"/>
<path fill-rule="evenodd" clip-rule="evenodd" d="M120.282 499.177C120.282 499.177 145.419 394.668 153.114 355.162C160.808 315.655 158.337 288.749 129.235 280.914C100.974 273.306 86.9365 286.995 70.0429 328.783C53.6811 369.253 21.7842 471.569 21.7842 471.569L120.282 499.177Z" fill="#160151"/>
<path fill-rule="evenodd" clip-rule="evenodd" d="M120.282 499.924C120.214 499.924 120.146 499.916 120.08 499.897L114.633 498.371C114.236 498.261 114.003 497.846 114.115 497.448C114.225 497.052 114.64 496.818 115.037 496.929L119.735 498.246C122.026 488.702 145.119 392.291 152.379 355.017C154.94 341.868 156.156 331.14 156.1 322.221C156.096 321.809 156.431 321.471 156.844 321.468H156.849C157.26 321.468 157.594 321.8 157.597 322.212C157.654 331.232 156.429 342.056 153.85 355.304C146.241 394.374 121.262 498.306 121.01 499.351C120.962 499.549 120.836 499.718 120.661 499.822C120.545 499.89 120.414 499.924 120.282 499.924Z" fill="#DADEE8"/>
<path fill-rule="evenodd" clip-rule="evenodd" d="M346.588 264.61C331.291 195.96 343.442 124.773 343.442 124.773C343.442 124.773 317.527 118.244 289.297 118.244C264.175 118.244 244.027 123.343 244.027 123.343C244.027 123.343 238.19 198.537 215.805 251.517C215.805 251.517 233.581 265.369 275.865 269.349C322.343 273.723 346.588 264.61 346.588 264.61Z" fill="#5D21D1"/>
<path fill-rule="evenodd" clip-rule="evenodd" d="M228.242 215.273C228.179 215.273 228.112 215.264 228.048 215.247C227.649 215.14 227.412 214.729 227.521 214.329C231.948 197.909 235.737 179.606 238.777 159.926C238.842 159.518 239.234 159.238 239.632 159.301C240.042 159.364 240.321 159.746 240.257 160.155C237.208 179.888 233.409 198.246 228.965 214.719C228.876 215.054 228.574 215.273 228.242 215.273Z" fill="#160151"/>
<path fill-rule="evenodd" clip-rule="evenodd" d="M392.023 215.609C392.023 215.609 381.451 226.615 358.179 228.143C331.3 229.908 320.874 217.497 320.874 217.497C320.874 217.497 335.044 201.205 356.448 201.183C381.7 201.156 392.023 215.609 392.023 215.609Z" fill="#160151"/>
<path fill-rule="evenodd" clip-rule="evenodd" d="M303.843 67.1533L312.987 119.53C312.987 119.53 291.423 140.582 276.796 140.628C271.262 140.646 266.542 119.548 266.542 119.548L266.339 67.8742L303.843 67.1533Z" fill="#FFC4A3"/>
<path fill-rule="evenodd" clip-rule="evenodd" d="M273.024 67.7432L266.339 67.8714L266.502 109.362C273.812 108.925 277.443 105.463 277.443 105.463L273.024 67.7432Z" fill="#EB7353"/>
<path fill-rule="evenodd" clip-rule="evenodd" d="M286.634 31.2719C286.634 31.2719 253.469 26.9954 246.484 47.3472C241.074 63.1108 248.773 84.426 258.144 95.9879C271.451 112.404 298.541 106.303 300.729 86.9013C302.922 67.4744 286.634 31.2719 286.634 31.2719Z" fill="#FFC4A3"/>
<path fill-rule="evenodd" clip-rule="evenodd" d="M297.225 59.1719C297.225 59.1719 290.696 44.0608 282.165 41.3449C282.165 41.3449 274.647 45.8508 264.126 44.9811C253.603 44.1105 248.379 36.2745 248.379 36.2745C248.379 36.2745 262.993 23.2793 290.601 27.7824L300.532 58.3153L297.225 59.1719Z" fill="#160151"/>
<path fill-rule="evenodd" clip-rule="evenodd" d="M320.871 217.511L323.245 231.368C323.245 231.368 276.465 234.353 245.382 236.274C214.3 238.196 205.916 242.431 197.884 248.456C190.795 253.772 185.198 263.878 184.515 271.899C183.98 278.156 190.619 280.332 193.655 276.19C196.998 271.631 196.298 266.738 201.708 261.887C201.708 261.887 199.051 266.666 198.816 271.899C198.568 277.433 199.936 281.289 202.39 283.372C205.177 285.74 209.326 285.257 210.071 281.898C210.071 281.898 212.932 287.756 218.03 285.766C223.786 283.52 220.767 273.329 223.13 269.473C223.13 269.473 236.064 273.522 246.759 269.35C246.759 269.35 297.501 278.802 341.029 279.05C375.357 279.246 377.045 275.114 377.344 250.446C377.622 227.451 369.135 195.883 369.135 195.883C369.135 195.883 335.784 188.556 320.871 217.511Z" fill="#FFC4A3"/>
<path fill-rule="evenodd" clip-rule="evenodd" d="M373.99 217.97C371.72 205.496 369.138 195.883 369.138 195.883C369.138 195.883 335.788 188.556 320.874 217.51L321.477 221.031H321.478C321.478 221.031 351.233 205.134 373.99 217.97Z" fill="#EB7353"/>
<path fill-rule="evenodd" clip-rule="evenodd" d="M213.278 286.161C213.148 286.161 213.016 286.127 212.898 286.057C211.699 285.349 210.802 284.338 210.217 283.53C209.694 284.37 208.906 284.988 207.906 285.324C206.007 285.958 203.654 285.419 201.911 283.938C199.152 281.594 197.825 277.417 198.075 271.86C198.167 269.792 198.617 267.807 199.142 266.137C198.242 267.656 197.685 269.187 197.111 270.766C196.409 272.698 195.682 274.696 194.266 276.627C192.674 278.799 190.071 279.611 187.629 278.694C185.017 277.714 183.502 275.02 183.775 271.83C184.488 263.469 190.363 253.161 197.441 247.852C203.332 243.435 208.996 240.452 220.515 238.28C220.909 238.202 221.313 238.469 221.391 238.877C221.468 239.284 221.2 239.676 220.793 239.752C208.389 242.09 203.094 245.484 198.339 249.051C191.568 254.13 185.948 263.978 185.267 271.959C185.008 274.995 186.589 276.705 188.156 277.291C189.954 277.972 191.877 277.356 193.057 275.741C194.347 273.983 195.005 272.172 195.703 270.254C196.761 267.346 197.854 264.337 201.214 261.325C201.489 261.081 201.896 261.069 202.18 261.297C202.468 261.526 202.546 261.926 202.369 262.247C202.343 262.291 199.795 266.94 199.569 271.928C199.343 277.005 200.487 280.762 202.881 282.798C204.231 283.945 206.018 284.379 207.429 283.903C208.137 283.665 209.044 283.096 209.347 281.731C209.416 281.422 209.673 281.188 209.989 281.15C210.311 281.115 210.611 281.277 210.751 281.563C210.761 281.584 211.804 283.67 213.658 284.767C214.015 284.977 214.133 285.437 213.923 285.792C213.782 286.029 213.533 286.161 213.278 286.161Z" fill="#160151"/>
<path fill-rule="evenodd" clip-rule="evenodd" d="M267.654 299.499H76.6285C71.6826 299.499 67.6738 295.49 67.6738 290.545H276.608C276.608 295.49 272.599 299.499 267.654 299.499Z" fill="#DADEE8"/>
<path fill-rule="evenodd" clip-rule="evenodd" d="M199.004 300.25C193.655 300.25 189.302 295.897 189.302 290.548C189.302 290.133 189.637 289.799 190.051 289.799C190.465 289.799 190.8 290.133 190.8 290.548C190.8 295.072 194.48 298.753 199.004 298.753C199.418 298.753 199.753 299.088 199.753 299.501C199.753 299.915 199.418 300.25 199.004 300.25Z" fill="#160151"/>
<path fill-rule="evenodd" clip-rule="evenodd" d="M343.444 124.765C353.658 126.257 359.814 134.279 368.271 156.416C375.388 175.046 383.319 201.437 392.025 215.614C392.025 215.614 378.967 206.038 355.337 206.535C335.024 206.963 320.877 217.502 320.877 217.502C320.877 217.502 317.654 190.244 324.332 162.359C331.625 131.911 343.444 124.765 343.444 124.765Z" fill="#5D21D1"/>
<path fill-rule="evenodd" clip-rule="evenodd" d="M320.873 218.253C320.511 218.253 320.192 217.99 320.134 217.621C320.086 217.316 315.43 186.761 323.957 156.602C324.069 156.204 324.481 155.97 324.881 156.085C325.279 156.197 325.512 156.611 325.398 157.01C316.962 186.843 321.567 217.086 321.614 217.387C321.679 217.797 321.399 218.18 320.991 218.245C320.951 218.25 320.912 218.253 320.873 218.253Z" fill="#160151"/>
<path fill-rule="evenodd" clip-rule="evenodd" d="M192.915 293.518H67.1901C63.9265 293.518 61.0412 291.396 60.0685 288.282L33.6726 203.818C32.772 200.934 34.9262 198.005 37.9463 198.005H163.671C166.935 198.005 169.82 200.126 170.793 203.241L197.188 287.706C198.089 290.588 195.935 293.518 192.915 293.518Z" fill="#DADEE8"/>
<path fill-rule="evenodd" clip-rule="evenodd" d="M188.433 294.271C188.019 294.271 187.684 293.936 187.684 293.522C187.684 293.108 188.019 292.773 188.433 292.773C189.631 292.773 190.727 292.218 191.436 291.253C192.147 290.288 192.349 289.077 191.993 287.933L165.596 203.47C164.717 200.651 162.142 198.758 159.189 198.758C158.775 198.758 158.439 198.423 158.439 198.009C158.439 197.594 158.775 197.26 159.189 197.26C162.8 197.26 165.95 199.575 167.026 203.021L193.423 287.485C193.923 289.09 193.639 290.786 192.643 292.141C191.647 293.494 190.113 294.271 188.433 294.271Z" fill="#160151"/>
<path fill-rule="evenodd" clip-rule="evenodd" d="M192.918 294.281H68.1923C67.7795 294.281 67.4443 293.947 67.4443 293.533C67.4443 293.119 67.7795 292.784 68.1923 292.784H192.918C194.492 292.784 195.906 291.785 196.436 290.297C196.574 289.908 197.003 289.702 197.393 289.844C197.782 289.983 197.986 290.411 197.846 290.8C197.105 292.883 195.124 294.281 192.918 294.281Z" fill="#160151"/>
<path fill-rule="evenodd" clip-rule="evenodd" d="M210.079 282.643C209.749 282.643 209.447 282.423 209.356 282.091C207.21 274.225 209.124 266.657 211.973 262.647C212.213 262.309 212.686 262.234 213.017 262.47C213.355 262.709 213.433 263.177 213.193 263.513C210.635 267.117 208.794 274.342 210.802 281.696C210.91 282.096 210.676 282.508 210.276 282.616C210.211 282.633 210.143 282.643 210.079 282.643Z" fill="#160151"/>
<path fill-rule="evenodd" clip-rule="evenodd" d="M341.091 233.908C341.018 233.908 340.945 233.898 340.874 233.875C340.798 233.854 333.362 231.645 323.278 232.103C322.801 232.154 322.515 231.802 322.497 231.389C322.478 230.977 322.796 230.626 323.21 230.608C333.583 230.135 340.997 232.349 341.307 232.442C341.704 232.563 341.927 232.98 341.808 233.376C341.709 233.699 341.413 233.908 341.091 233.908Z" fill="#160151"/>
<path fill-rule="evenodd" clip-rule="evenodd" d="M267.084 48.8912C254.115 48.8912 247.775 36.7488 247.71 36.6224C247.523 36.2536 247.67 35.8033 248.037 35.6151C248.409 35.4297 248.856 35.573 249.044 35.9418C249.106 36.0635 255.373 48.0533 268.174 47.3633C280.971 46.6518 285.046 39.2541 285.086 39.1792C285.28 38.8178 285.736 38.6764 286.099 38.8674C286.463 39.0603 286.603 39.5106 286.413 39.8766C286.237 40.2118 281.954 48.0973 268.255 48.8584C267.859 48.8809 267.469 48.8912 267.084 48.8912Z" fill="#160151"/>
<path fill-rule="evenodd" clip-rule="evenodd" d="M323.803 107.71C323.414 107.71 323.085 107.407 323.057 107.012C323.029 106.601 323.341 106.242 323.753 106.213C323.863 106.206 334.85 105.333 340.904 96.2505C346.573 87.7481 345.913 75.7723 339.226 65.7401C336.025 60.9393 329.525 56.0187 323.241 51.26C317.157 46.654 311.412 42.3026 308.631 38.1318C308.401 37.7873 308.495 37.323 308.839 37.0927C309.178 36.8661 309.644 36.955 309.877 37.3005C312.517 41.2615 318.165 45.538 324.146 50.0664C330.53 54.8999 337.131 59.8983 340.472 64.9097C347.496 75.4465 348.156 88.0748 342.151 97.0809C335.679 106.79 324.336 107.675 323.856 107.709C323.839 107.71 323.821 107.71 323.803 107.71Z" fill="#160151"/>
<path fill-rule="evenodd" clip-rule="evenodd" d="M274.08 68.9274C274.08 69.9067 274.874 70.7015 275.854 70.7015C276.833 70.7015 277.628 69.9067 277.628 68.9274C277.628 67.9481 276.833 67.1533 275.854 67.1533C274.874 67.1533 274.08 67.9481 274.08 68.9274Z" fill="#160151"/>
<path fill-rule="evenodd" clip-rule="evenodd" d="M251.688 72.3512C251.688 73.3305 252.482 74.1253 253.463 74.1253C254.442 74.1253 255.237 73.3305 255.237 72.3512C255.237 71.372 254.442 70.5771 253.463 70.5771C252.482 70.5771 251.688 71.372 251.688 72.3512Z" fill="#160151"/>
<path fill-rule="evenodd" clip-rule="evenodd" d="M254.207 60.6863C253.822 61.2405 251.969 61.6543 250.071 62.1842C248.161 62.6738 246.35 63.243 245.739 62.9547C245.106 62.6925 246.632 61.2124 249.596 60.4157C252.563 59.6237 254.624 60.1424 254.207 60.6863Z" fill="#160151"/>
<path fill-rule="evenodd" clip-rule="evenodd" d="M281.321 58.0312C280.641 58.4253 278.134 58.3523 275.532 58.371C272.929 58.3523 270.424 58.4253 269.743 58.0312C269.026 57.6539 271.478 56.7187 275.532 56.7168C279.586 56.7187 282.038 57.6539 281.321 58.0312Z" fill="#160151"/>
<path fill-rule="evenodd" clip-rule="evenodd" d="M276.597 60.7215C271.661 60.7215 267.644 64.7369 267.644 69.6734C267.644 74.609 271.661 78.6252 276.597 78.6252C281.533 78.6252 285.548 74.609 285.548 69.6734C285.548 64.7369 281.533 60.7215 276.597 60.7215ZM276.597 80.1222C270.835 80.1222 266.146 75.4347 266.146 69.6734C266.146 63.9111 270.835 59.2236 276.597 59.2236C282.359 59.2236 287.046 63.9111 287.046 69.6734C287.046 75.4347 282.359 80.1222 276.597 80.1222Z" fill="#160151"/>
<path fill-rule="evenodd" clip-rule="evenodd" d="M251.966 64.1376C247.475 64.1376 243.823 68.1529 243.823 73.0894C243.823 78.025 247.475 82.0413 251.966 82.0413C256.457 82.0413 260.109 78.025 260.109 73.0894C260.109 68.1529 256.457 64.1376 251.966 64.1376ZM251.966 83.5392C246.65 83.5392 242.325 78.8517 242.325 73.0894C242.325 67.3272 246.65 62.6396 251.966 62.6396C257.282 62.6396 261.607 67.3272 261.607 73.0894C261.607 78.8517 257.282 83.5392 251.966 83.5392Z" fill="#160151"/>
<path fill-rule="evenodd" clip-rule="evenodd" d="M283.414 63.5075C283.122 63.5075 282.844 63.3343 282.723 63.0478C282.562 62.6668 282.743 62.2277 283.124 62.0676C283.318 61.9862 302.6 53.8919 306.608 52.2554C308.418 51.5177 310.137 51.4981 311.716 52.2002C314.89 53.6101 316.305 57.4372 316.363 57.5992C316.505 57.9877 316.303 58.4165 315.916 58.5569C315.525 58.7002 315.096 58.497 314.956 58.1094C314.943 58.0748 313.69 54.7111 311.104 53.5661C309.909 53.0371 308.59 53.0652 307.173 53.6419C303.173 55.2765 283.898 63.368 283.703 63.4495C283.609 63.4888 283.51 63.5075 283.414 63.5075Z" fill="#160151"/>
<path fill-rule="evenodd" clip-rule="evenodd" d="M295.173 59.6615C295.173 59.6615 297.785 53.1147 305.154 54.5134C312.522 55.913 313.827 66.3768 309.723 71.0409C305.62 75.705 299.16 75.3904 299.16 75.3904L295.173 59.6615Z" fill="#FFC4A3"/>
<path fill-rule="evenodd" clip-rule="evenodd" d="M299.371 66.0814C299.304 66.0814 299.234 66.072 299.166 66.0523C298.768 65.9391 298.537 65.5243 298.651 65.1264C300.248 59.5261 304.827 59.4531 304.872 59.4531H304.874C305.287 59.4531 305.623 59.7873 305.623 60.2011C305.623 60.6131 305.291 60.9482 304.88 60.951C304.726 60.9529 301.368 61.0615 300.091 65.5374C299.997 65.867 299.698 66.0814 299.371 66.0814Z" fill="#160151"/>
<path fill-rule="evenodd" clip-rule="evenodd" d="M260.29 70.4125C260.101 70.4125 259.913 70.3423 259.768 70.2009C259.472 69.9135 259.463 69.4445 259.749 69.1468C259.86 69.0298 262.56 66.2933 267.202 67.9419C267.59 68.0805 267.795 68.5083 267.658 68.8978C267.521 69.2881 267.098 69.4932 266.702 69.3537C263.002 68.0449 260.912 70.1017 260.825 70.1888C260.678 70.3376 260.483 70.4125 260.29 70.4125Z" fill="#160151"/>
<path fill-rule="evenodd" clip-rule="evenodd" d="M263.208 70.9209L263.62 75.2143C263.62 75.2143 259.867 75.2002 259.867 77.8684C259.867 80.6666 264.011 81.8163 266.899 79.3934" fill="#FFC4A3"/>
<path fill-rule="evenodd" clip-rule="evenodd" d="M263.393 81.4518C262.584 81.4518 261.836 81.2833 261.228 81.0006C259.908 80.3846 259.122 79.2125 259.122 77.8634C259.122 77.0339 259.418 76.299 259.98 75.7392C260.801 74.921 262.004 74.6261 262.805 74.5203L262.465 70.988C262.426 70.5761 262.729 70.21 263.139 70.1707C263.564 70.1361 263.916 70.4319 263.958 70.8448L264.369 75.1381C264.389 75.3479 264.319 75.5566 264.178 75.713C264.036 75.8693 263.833 75.9583 263.622 75.9583C263.5 75.9583 260.619 75.9817 260.619 77.8634C260.619 78.9073 261.398 79.4259 261.861 79.6422C263.009 80.1777 264.858 80.1262 266.421 78.8155C266.735 78.5478 267.209 78.5889 267.476 78.9073C267.742 79.2246 267.701 79.6965 267.383 79.9633C266.114 81.0268 264.677 81.4518 263.393 81.4518Z" fill="#EB7353"/>
<path fill-rule="evenodd" clip-rule="evenodd" d="M116.924 248.743C116.924 252.864 113.583 256.205 109.461 256.205C105.34 256.205 102 252.864 102 248.743C102 244.622 105.34 241.28 109.461 241.28C113.583 241.28 116.924 244.622 116.924 248.743Z" fill="#F3F4F7"/>
<path fill-rule="evenodd" clip-rule="evenodd" d="M272.9 84.3833C270.061 85.4178 268.24 83.772 267.115 85.723C265.81 87.9867 270.027 92.3512 274.831 90.183C278.945 88.3256 278.972 83.0577 276.878 82.6055C275.283 82.26 274.688 83.7317 272.9 84.3833Z" fill="#160151"/>
<path fill-rule="evenodd" clip-rule="evenodd" d="M271.607 90.7176C272.607 90.8177 273.697 90.6932 274.827 90.183C277.404 89.0203 278.376 86.5188 278.228 84.7007C277.67 84.6361 277.099 84.623 276.517 84.726C273.581 85.2427 271.55 87.8276 271.607 90.7176Z" fill="#FF5A5A"/>
<path fill-rule="evenodd" clip-rule="evenodd" d="M278.381 84.8271C278.323 83.6484 277.83 82.7141 276.994 82.5325C275.358 82.1786 274.748 83.6887 272.914 84.3571C270.001 85.4187 268.132 83.7308 266.978 85.7314C266.644 86.3119 266.664 87.029 266.959 87.7405C268.33 88.0794 270.164 88.2442 272.428 87.7012C275.197 87.0374 277.15 85.8148 278.381 84.8271Z" fill="#DADEE8"/>
<path fill-rule="evenodd" clip-rule="evenodd" d="M246.761 270.101C246.482 270.101 246.215 269.944 246.085 269.675C245.907 269.302 246.065 268.854 246.438 268.676C251.115 266.434 251.414 261.813 251.424 261.616C251.445 261.206 251.755 260.908 252.21 260.907C252.623 260.929 252.94 261.277 252.92 261.69C252.909 261.922 252.588 267.389 247.084 270.028C246.98 270.077 246.871 270.101 246.761 270.101Z" fill="#160151"/>
<path fill-rule="evenodd" clip-rule="evenodd" d="M81.2177 69.0388C76.5709 77.0874 79.4738 87.4633 87.7014 92.2135L104.713 102.035C105.602 102.549 106.73 102.259 107.232 101.39C107.63 100.701 107.524 99.8275 106.971 99.2339L101.488 93.3546C98.0046 89.6196 97.3369 84.1252 99.8398 79.7902L81.2177 69.0388Z" fill="#160151"/>
<path fill-rule="evenodd" clip-rule="evenodd" d="M89.6328 54.4756C94.2797 46.4269 104.717 43.753 112.945 48.5033L129.957 58.3251C130.845 58.8383 131.159 59.9598 130.657 60.8293C130.259 61.5182 129.45 61.8627 128.659 61.6806L120.826 59.8721C115.85 58.723 110.758 60.892 108.255 65.227L89.6328 54.4756Z" fill="#160151"/>
<path fill-rule="evenodd" clip-rule="evenodd" d="M117.15 70.7501L109.073 84.7408C108.515 85.706 107.248 86.0185 106.241 85.4373L100.776 82.2822L110.873 64.794L116.338 67.9491C117.345 68.5303 117.708 69.7842 117.15 70.7501Z" fill="#848CAE"/>
<path fill-rule="evenodd" clip-rule="evenodd" d="M112.415 65.502C113.368 63.8506 113.113 61.761 111.753 60.4243C107.915 56.648 102.605 52.2472 95.6628 48.2393C73.5292 35.4604 45.4192 30.0895 41.7067 36.5198C37.9948 42.949 56.7011 64.6075 78.8347 77.3863C85.7767 81.3942 92.2429 83.7924 97.4322 85.229C99.2698 85.7373 101.207 84.9141 102.161 83.2627L112.415 65.502Z" fill="#DADEE8"/>
<path fill-rule="evenodd" clip-rule="evenodd" d="M103.866 68.5144C113.122 73.8584 119.684 79.8216 118.522 81.8339C117.361 83.8455 108.915 81.1452 99.659 75.8011C90.4028 70.4571 83.8415 64.4933 85.0029 62.4816C86.1647 60.4694 94.6099 63.1703 103.866 68.5144Z" fill="#160151"/>
<path fill-rule="evenodd" clip-rule="evenodd" d="M50.388 55.1338L62.1676 34.7308C51.7721 32.7055 43.6579 33.1344 41.7039 36.5189C39.7506 39.9021 43.4363 47.1436 50.388 55.1338Z" fill="#160151"/>
</g>
</svg>
